<?xml version="1.0" encoding="UTF-8"?>
<!DOCTYPE svg PUBLIC "-//W3C//DTD SVG 1.1//EN" "http://www.w3.org/Graphics/SVG/1.1/DTD/svg11.dtd">
<!-- Creator: CorelDRAW 2018 (64 Bit) -->
<svg xmlns="http://www.w3.org/2000/svg" xml:space="preserve" width="320mm" height="320mm" version="1.1" style="shape-rendering:geometricPrecision; text-rendering:geometricPrecision; image-rendering:optimizeQuality; fill-rule:evenodd; clip-rule:evenodd"
viewBox="0 0 32000 32000"
 xmlns:xlink="http://www.w3.org/1999/xlink">
 <defs>
  <style type="text/css">
   <![CDATA[
    .fil0 {fill:none}
    .fil1 {fill:#1B95E0}
   ]]>
  </style>
   <clipPath id="id0">
    <path d="M16000 996.23l6496.82 3750.94 6496.81 3750.93 0 7501.9 0 7501.9 -6496.81 3750.93 -6496.82 3750.94 -6496.82 -3750.94 -6496.82 -3750.93 0 -7501.9 0 -7501.9 6496.82 -3750.93 6496.82 -3750.94z"/>
   </clipPath>
 </defs>
 <g id="Camada_x0020_1">
  <metadata id="CorelCorpID_0Corel-Layer"/>
  <rect class="fil0" width="32000" height="32000"/>
  <rect class="fil0" width="32000" height="32000"/>
  <g>
  </g>
  <g style="clip-path:url(#id0)">
   <g>
    <g id="_741018864">
     <path class="fil1" d="M19694.14 11285.26c118.05,100.32 53.83,61.66 152.34,159.08l389.16 -154.16c312.85,362.09 635.36,888.96 873.76,1252.3 281.56,429.09 565.88,780.14 844.13,1209.02l4237.08 6196.74c276.31,389.91 637.49,862.73 825.13,1246.81l1887.76 -3374.06c209.85,-392.83 503.86,-765.47 503.86,-1284.18l-4.79 -8396.97c-731.56,-281.27 -5227.79,-3129.81 -5754.68,-3284.31 -174.34,524.99 -2129.67,3909.7 -2561.52,4764.31 -261.8,518.09 -643.49,1094.08 -857.16,1596.67l-255.98 -283.91c-5.87,-23.83 -27.43,-24.26 -53.57,-42.07l-217.06 305.39c-219.48,-197.94 -386.87,-504.53 -540.12,-744.75l-3646.6 -5266.17c-395.81,1015.64 -1024.71,2171.95 -1508.51,3216.41l-4535.06 9662.93 -294.01 -311.19 -212.46 317.34c-1358.31,-1488.98 -3338.19,-4115.88 -4750.03,-5769.05 -252.87,-296.11 -1302.01,-1645.75 -1596.43,-1857.16l-8.22 13250.36c58.09,246.72 2788.53,1739.76 2921.6,1805.87l3450.04 -7373.36c97.31,131.37 175.73,191.89 311.65,322.93l204.43 -324.92 1982.11 2368.88c329.86,385.81 1656.02,2134.86 1950.21,2289.28l6262.94 -11498.06z"/>
     <path class="fil1" d="M19067.57 29789.31c711.2,-268.61 1836.06,-1045.32 2542.69,-1445.83 500.49,-283.67 2150.09,-1144.08 2403.99,-1556.76l2794.72 -5170 310.4 358.31 179.5 -334.44c213.84,154.72 677.55,907.07 878.27,1193.28 285.66,407.29 493.67,806.85 823.86,1184.05l405.71 -168.25 -17.01 -5938.93c-273.29,239.51 -820.64,1415.67 -1063.84,1840.92 -249.63,436.52 -733.07,1494.64 -1030.45,1806.65l-269.4 -232.47c-15.11,16.01 -67.88,74.01 -84.83,91.54l-186.71 179.07c-150.53,-380.65 -5311.15,-7840.7 -5917.23,-8708.83 -248.49,-355.91 -600.82,-981.41 -923.02,-1200.19 -129.19,431.31 -526.18,1060.3 -755.91,1489.69l-5477.48 9977.06 -293.95 -302.91c-72,159.3 -145.39,276.23 -172.05,478.24l277.19 231.87 167.46 -335.37 223.62 198.04c127.31,129.36 76.13,78.57 173.18,206.12 121.85,160.14 196.12,250.64 339.12,421.94l3363.45 4098.7c375.86,445.17 1007.02,1166.71 1308.72,1638.5z"/>
     <path class="fil1" d="M15767.58 4659.77l-340.7 -324.96 -180.17 421.15c-214.87,-395.27 -687.46,-1023.09 -949.74,-1393.86 -300.72,-425.07 -665.4,-1050.3 -990.73,-1396.14 -381,134.8 -4816.12,2785.72 -5325.24,3077.88l-5364.9 3096c-43.4,2081.19 -157.03,1261.19 1108.26,2902.74l5469.65 6629.34 6036.13 -12874.5c231,141.53 54,53.14 284.36,299.47l312.87 -230.76c8.33,9.58 29.42,31.36 39.37,43.27l1960.57 2842.71c432.72,610.55 1750.31,2626.49 2103.72,3016.18l3371.56 -6104.83 -2916.72 -1754.17c-566.19,-319.93 -2602.91,-1566.79 -2967.68,-1698.85l-1650.61 3449.33z"/>
     <polygon class="fil1" points="13178.16,23237.77 9280.09,18511 5925.87,25740.82 10409.81,28328.02 "/>
     <path class="fil1" d="M10789.82 28596.52l3988.84 2306.16c1464.98,887.97 1096.2,778.43 1979.44,279.1 428.01,-241.97 1639.34,-892.97 1935.66,-1166.91l-3915.4 -4823.41c-447.89,-539.07 -855.95,-1082.92 -1315.43,-1574.42l-2673.11 4979.48z"/>
     <path class="fil1" d="M13699.97 1697.27c436.37,834.46 1243.3,1769.65 1741.81,2579.99l1592.37 -3328.71c-1693.99,-1011.22 -833.51,-403.62 -3334.18,748.72z"/>
     <path class="fil1" d="M28607.31 24295.48c-113.71,-287.51 -530.47,-853.86 -740.91,-1150.37 -132.9,-187.23 -257.48,-356.11 -376.55,-535.24 -159.51,-239.99 -192.88,-371.07 -423.47,-534.34l-2395.38 4491.2 3936.31 -2271.25z"/>
    </g>
   </g>
  </g>
  <polygon class="fil0" points="16000,996.23 22496.82,4747.17 28993.63,8498.1 28993.63,16000 28993.63,23501.9 22496.82,27252.83 16000,31003.77 9503.18,27252.83 3006.36,23501.9 3006.36,16000 3006.36,8498.1 9503.18,4747.17 "/>
 </g>
</svg>
