<svg version="1" xmlns="http://www.w3.org/2000/svg" width="933.333" height="933.333" viewBox="0 0 700.000000 700.000000"><path d="M342 26.3c-26.1 15.1-36 20.9-36 21.3 0 .5 9.6 14.3 19.5 28.1 4.4 6.1 9 12.6 10.2 14.3l2.1 3.2 6.7-13.8c7.1-14.6 17.9-37.2 21-43.7 1-2.1 1.6-3.9 1.4-4.1-1-.8-16.4-9.6-16.9-9.6-.3 0-3.9 1.9-8 4.3z"/><path d="M371.6 46.2c-2.4 5.1-8.5 17.8-13.5 28.3-5 10.4-9.9 20.7-10.9 22.7-.9 2.1-2.1 3.8-2.6 3.8s-2.2-1.4-3.8-3c-1.5-1.7-3-3-3.2-3-.2 0-1.2 1.9-2.1 4.2-1.6 4.1-1.8 4.2-3.1 2.3-4.2-5.7-18.5-26.5-25.6-37-4.5-6.6-8.2-12.2-8.4-12.3-.3-.5-7.7 3.6-23.8 12.9-6.6 3.9-15.2 8.9-19.1 11.2-3.8 2.2-10.3 6-14.3 8.4-4 2.4-7.4 4.3-7.7 4.3-.2 0-3.9 2.1-8.2 4.6-4.3 2.6-9.4 5.6-11.3 6.7-4.5 2.5-62.4 35.9-94.5 54.6-13.7 7.9-26.8 15.4-29 16.7-2.2 1.2-7.4 4.1-11.5 6.5-4.1 2.5-8.7 5.1-10.2 5.8-1.6.8-2.8 2.1-2.9 3 0 .9-.1 9.4-.1 18.8v17.2l5 5.8c4.8 5.5 40.9 49.3 64.6 78.3 6.1 7.4 11.3 13.7 11.6 14 .5.4 13.7 16.4 20.7 25 2.9 3.6 23.8 28.9 27.1 32.9 2 2.4 4.1 4.9 4.5 5.7 1.2 2 2.5 1.7 3.3-.8.4-1.3 3.3-7.7 6.4-14.3 3.2-6.6 8.9-18.8 12.8-27 3.9-8.3 9.1-19.5 11.7-25 2.6-5.5 7.8-16.5 11.5-24.5 7.7-16.4 8.3-17.8 33.5-71.5 10.1-21.5 21-44.8 24.4-51.9 3.4-7 6.1-13 6.1-13.1 0-.2 2.6-5.8 5.9-12.6 3.2-6.8 7.8-16.5 10.1-21.4 2.3-5 5.1-10.9 6.2-13.2 2.1-4.5 3.7-4.7 5.8-.7 1.6 2.9 2.4 3 5.7.4 1.4-1.1 2.9-2 3.4-2 .7 0 35.2 49.4 54 77.5 4.1 6 8.2 12.1 9.2 13.5 1 1.4 6.7 9.6 12.8 18.3 10.6 15.4 13.7 19.3 14.3 18.6.2-.2 7-12.6 15.1-27.4 8.2-14.9 15.6-28.4 16.5-30 1.7-3 3.7-6.8 25.3-45.6 11.1-20.1 11.3-20.6 9.3-21.9-2.3-1.5-35.8-20.9-42.1-24.5-2.2-1.2-19.7-11.3-39-22.5-19.2-11.2-37.4-21.6-40.3-23.2l-5.2-2.9-4.4 9.3z"/><path d="M336 121.7c-1.8 4.3-8.7 18.8-15.3 32.3-6.5 13.5-13 27-14.4 30-1.4 3-5.4 11.5-8.9 18.9-3.5 7.3-6.4 13.5-6.4 13.7 0 .1-2.5 5.6-5.6 12.1-7.1 14.9-12.8 27.1-16.4 34.8-1.5 3.3-4.8 10.3-7.3 15.5-2.5 5.2-6.1 12.9-8 17-2.9 6.3-14.9 31.9-39.7 84.5-2.6 5.6-5.1 11.1-5.5 12.4-.7 2.3-.7 2.3-4.2-1-3.4-3.3-3.5-3.4-4.9-1.4-.9 1.1-1.9 2.6-2.4 3.4-.6 1.1-1.5.6-4.1-2.4-1.9-2.1-3.9-4.3-4.5-4.9-.9-.9-30.3-36.2-33.8-40.7-32.8-41-61-75.6-74-90.9-1.1-1.4-3.9-4.8-6.1-7.5-6.6-8.3-8.5-10.2-8.6-8.5-.3 5.9-.1 275.1.2 275.4.2.1 4.2 2.4 8.9 5 4.7 2.7 12.8 7.3 18 10.3 5.2 3.1 11.1 6.4 13 7.5 1.9 1.1 4 2.3 4.5 2.8.6.4 4.1 2.4 7.9 4.5 8 4.3 6.8 5 12.7-8 2-4.4 5.2-11.4 7.1-15.5 2-4.1 8.2-17.4 13.8-29.5 5.6-12.1 12.2-26.1 14.5-31 2.4-5 5.9-12.5 7.9-16.8 12.7-27.2 21.6-46 22.1-46.5.2-.3 1.6 1 3 2.7 3.3 3.9 4.1 3.9 6 0 .9-1.6 2-2.9 2.4-2.7.5.2 5.5 5.9 11.2 12.8 5.7 6.9 11.3 13.6 12.5 15 9.2 10.8 25 30.1 35.3 43 6.8 8.5 13.4 16.6 14.7 18 8.2 8.9 11.7 12.1 12.4 11.4.5-.5 7.7-13.5 16.1-28.9 8.3-15.4 16.4-30.3 17.9-33 14.5-26.5 24-44 39.8-73 10.1-18.7 19.8-36.5 21.5-39.5 6.2-11.2 7.7-14 19.9-36.5 6.9-12.7 14.5-26.6 16.8-31 2.4-4.4 4.4-8.1 4.5-8.3.2-.2 1 .5 1.9 1.4 1.6 1.5 2 1.5 5.9 0l4.2-1.7 2.3 2.8c1.3 1.5 7.2 10 13.2 18.8 6 8.8 17.3 25.3 25.2 36.7 7.9 11.5 20.6 30 28.3 41.3 7.7 11.3 20.9 30.6 29.2 42.8 8.4 12.2 15.7 22.9 16.3 23.7.5.8 6.1 8.9 12.5 18 6.3 9.1 13.7 20 16.4 24.3 3.5 5.6 5.1 7.4 5.8 6.5 1-1.3 3.6-5.9 8.9-15.3 1.5-2.8 9.7-17.4 18.2-32.5l15.4-27.5.1-99.8c0-84.1-.2-100.1-1.4-101.2-.8-.7-15.8-9.6-33.4-19.8-17.6-10.1-39.6-22.8-49-28.2-9.3-5.4-21.5-12.5-27-15.6-5.4-3.2-10.3-5.5-10.7-5.3-.5.3-1.6 2.2-2.6 4.2-2.5 5.2-12 22.6-23.2 42.7-7.5 13.5-12.2 21.9-15.8 28.5-1.3 2.5-3.7 6.7-5.2 9.5-1.5 2.7-4.4 8.1-6.5 12-2.1 3.8-6 10.9-8.7 15.7-2.6 4.7-5.5 10.3-6.4 12.4l-1.6 3.8-3.4-3.6-3.4-3.7-2.6 3.4-2.7 3.5-4.4-5.7c-2.5-3.2-4.9-6.7-5.4-7.8-.5-1.1-2.8-4.7-5.1-8-5.1-7.1-50.5-72.5-60.4-87-3.7-5.5-7.2-10.2-7.6-10.3-.4-.2-.8-.8-.8-1.3 0-.8-6.9-10.9-7.4-10.9-.1 0-1.7 3.5-3.6 7.7z"/><path d="M435 257.2c-.1 1.9-6 13.3-23.9 45.8-9 16.2-17.7 32-19.3 35-3.3 5.9-6.9 12.5-11.3 20.5-1.6 2.7-4 7.2-5.5 10-1.5 2.7-3.8 7-5.2 9.5-4.5 8-20 36.3-24.1 44-2.2 4.1-4.3 7.9-4.7 8.5-.4.5-3.8 6.6-7.5 13.5s-8 14.7-9.5 17.5c-19.9 36.1-24.3 44.1-24.7 44.5-.2.2-1.7-1-3.3-2.8-2.9-3.3-2.9-3.3-4-1.1-.7 1.2-1.6 3.5-2.1 5.2-.7 2.6-.5 3.3 1.9 5.4 1.5 1.2 3 2.3 3.4 2.3.4 0 1.2-1.5 1.9-3.4 1.2-3.3 1.3-3.4 3.5-1.9 1.3.8 6.6 6.7 11.7 13.1 5.2 6.5 18.2 22.5 29.1 35.6 10.8 13.2 20.9 25.5 22.4 27.4 1.5 1.9 3.9 4.8 5.3 6.6 1.5 1.7 8.4 10.1 15.5 18.6 7 8.5 13.1 15.7 13.4 16 .3.3 3.4 4 6.9 8.3l6.3 7.8 3.1-2c3.7-2.2 54.6-31.6 90.7-52.3 13.5-7.8 25.5-15 26.6-16.2 1.2-1.2 8.6-14 16.4-28.6 7.9-14.6 15.5-28.8 17-31.5 11.1-20.3 16.7-30.7 18.8-34.9l2.5-4.9 3.6 4.2 3.7 4.2 1.2-3.6c.8-1.9 1.7-3.5 2.2-3.5 1.6 0 7.3 7.5 19.1 25.1 6.5 9.8 12.1 17.9 12.4 17.9.2 0 1.6-.5 3-1.2 2-.9 2.5-1.9 2.6-4.7.4-22.1.2-105.8-.3-105.3-.9 1-4.9 8.4-22.4 41.7-7 13.4-13 23.5-14 23.5-.3 0-2-1-3.6-2.2l-3.1-2.2-2.5 2.9c-2.4 2.9-2.5 2.9-3.8 1-.8-1.1-11.8-17.5-24.4-36.5-12.7-19-28.7-42.6-35.5-52.5-6.8-9.9-15-21.8-18.2-26.5-3.2-4.7-15.2-22.2-26.8-38.8-11.5-16.7-21.4-31.1-22-32-.5-.9-1.2-1.9-1.5-2.2-.3-.3-3.2-4.4-6.3-9.3-5.2-8-12.6-16.7-14.1-16.7-.3 0-.6.6-.6 1.2zM202.7 405.7c-.3.4-6.1 12.9-13 27.8-6.9 14.8-14.1 30.4-16 34.5-2 4.1-7.8 16.7-13 28-14.3 31-15.6 33.7-20.9 45-2.7 5.8-5 10.9-5.1 11.4-.2.8 9.6 7.4 16.3 10.9 1.4.7 20.2 11.6 41.9 24.1 21.6 12.5 39.7 22.4 40.1 21.9.7-.7 45.9-83.5 52.4-96l2.8-5.2-9.4-11.3c-5.1-6.2-9.7-11.8-10.3-12.4-.5-.6-2.3-2.8-4-4.9-1.6-2.1-4.4-5.5-6.1-7.4-4.9-5.7-49.6-60-52.6-63.8-1.4-1.9-2.8-3-3.1-2.6z"/><path d="M591 485.1c-2.3 4.3-8.2 15.3-11 20.4-1.5 2.7-5.1 9.5-8 15-2.9 5.5-6.5 12.2-8 15-8.1 15-14 26.5-13.5 26.5.3 0 12.4-6.8 26.8-15.1s28.2-16.3 30.7-17.7c6.5-3.7 12-7.2 12-7.6 0-.8-21.8-32.1-24.8-35.5l-2.9-3.5-1.3 2.5zM291.4 522.2c-2.7 5.3-7.2 13.8-12.4 23.3-4.1 7.5-10.6 19.6-14.1 26.2-1.7 3.2-3.4 6.5-3.9 7.3-.5.8-5.2 9.4-10.3 19.1l-9.4 17.7 3.1 1.5c1.7.9 5.4 2.9 8.1 4.5 2.8 1.6 13.3 7.8 23.5 13.7 10.2 5.9 20.3 11.7 22.5 13 2.2 1.2 14.7 8.4 27.8 15.9l23.7 13.8 11.8-6.8c17.8-10.3 35.4-20.5 38-22.1l2.3-1.4-6.4-7.7c-6.4-7.8-36.5-44.9-67.1-82.7-17.7-21.9-33.4-40.5-34.1-40.5-.3 0-1.7 2.4-3.1 5.2z"/></svg>